<mxfile host="app.diagrams.net" modified="2022-04-15T20:56:18.386Z" agent="5.0 (Windows NT 10.0; Win64; x64) AppleWebKit/537.36 (KHTML, like Gecko) Chrome/100.0.4896.127 Safari/537.36" etag="Mzfmd333bDtrpvuG12qh" version="17.1.2" type="github">
  <diagram id="JtQY-y38J-oxPfumYa5v" name="Page-1">
    <mxGraphModel dx="1635" dy="866" grid="1" gridSize="10" guides="1" tooltips="1" connect="1" arrows="1" fold="1" page="1" pageScale="1" pageWidth="827" pageHeight="1169" math="0" shadow="0">
      <root>
        <mxCell id="0" />
        <mxCell id="1" parent="0" />
        <mxCell id="0koj4CaHkcI0XOmnxppj-7" value="" style="swimlane;startSize=0;fillColor=#d5e8d4;strokeColor=#191621;swimlaneFillColor=#B9E0A5;gradientColor=none;strokeWidth=2;" vertex="1" parent="1">
          <mxGeometry x="264" y="310" width="300" height="550" as="geometry" />
        </mxCell>
        <mxCell id="0koj4CaHkcI0XOmnxppj-10" value="Agendar Viagem" style="ellipse;whiteSpace=wrap;html=1;fillColor=#FF9100;gradientColor=none;" vertex="1" parent="0koj4CaHkcI0XOmnxppj-7">
          <mxGeometry x="90" y="20" width="120" height="70" as="geometry" />
        </mxCell>
        <mxCell id="0koj4CaHkcI0XOmnxppj-11" value="Reagendar&amp;nbsp;" style="ellipse;whiteSpace=wrap;html=1;fillColor=#FF9100;gradientColor=none;" vertex="1" parent="0koj4CaHkcI0XOmnxppj-7">
          <mxGeometry x="90" y="110" width="120" height="70" as="geometry" />
        </mxCell>
        <mxCell id="0koj4CaHkcI0XOmnxppj-12" value="Marcar local de viagem" style="ellipse;whiteSpace=wrap;html=1;fillColor=#FF9100;gradientColor=none;" vertex="1" parent="0koj4CaHkcI0XOmnxppj-7">
          <mxGeometry x="90" y="200" width="120" height="70" as="geometry" />
        </mxCell>
        <mxCell id="0koj4CaHkcI0XOmnxppj-13" value="Desmarcar local de viagem" style="ellipse;whiteSpace=wrap;html=1;fillColor=#FF9100;gradientColor=none;" vertex="1" parent="0koj4CaHkcI0XOmnxppj-7">
          <mxGeometry x="90" y="290" width="120" height="70" as="geometry" />
        </mxCell>
        <mxCell id="0koj4CaHkcI0XOmnxppj-14" value="Realizar viagem" style="ellipse;whiteSpace=wrap;html=1;fillColor=#FF9100;gradientColor=none;" vertex="1" parent="0koj4CaHkcI0XOmnxppj-7">
          <mxGeometry x="90" y="380" width="120" height="70" as="geometry" />
        </mxCell>
        <mxCell id="0koj4CaHkcI0XOmnxppj-15" value="Manter rota" style="ellipse;whiteSpace=wrap;html=1;fillColor=#FF9100;gradientColor=none;" vertex="1" parent="0koj4CaHkcI0XOmnxppj-7">
          <mxGeometry x="90" y="470" width="120" height="70" as="geometry" />
        </mxCell>
        <mxCell id="0koj4CaHkcI0XOmnxppj-34" value="Sistema de Gerenciamento de Veículos&amp;nbsp;" style="text;html=1;strokeColor=none;fillColor=none;align=center;verticalAlign=middle;whiteSpace=wrap;rounded=0;" vertex="1" parent="0koj4CaHkcI0XOmnxppj-7">
          <mxGeometry x="10" y="-10" width="290" height="30" as="geometry" />
        </mxCell>
        <mxCell id="0koj4CaHkcI0XOmnxppj-20" style="edgeStyle=none;rounded=0;orthogonalLoop=1;jettySize=auto;html=1;exitX=0.75;exitY=0.1;exitDx=0;exitDy=0;exitPerimeter=0;entryX=0;entryY=0.5;entryDx=0;entryDy=0;dashed=1;startArrow=none;startFill=0;endSize=12;strokeWidth=2;" edge="1" parent="1" source="0koj4CaHkcI0XOmnxppj-1" target="0koj4CaHkcI0XOmnxppj-10">
          <mxGeometry relative="1" as="geometry" />
        </mxCell>
        <mxCell id="0koj4CaHkcI0XOmnxppj-21" style="edgeStyle=none;rounded=0;orthogonalLoop=1;jettySize=auto;html=1;exitX=1;exitY=0.3333333333333333;exitDx=0;exitDy=0;exitPerimeter=0;entryX=0;entryY=0.5;entryDx=0;entryDy=0;dashed=1;startArrow=none;startFill=0;endSize=12;strokeWidth=2;" edge="1" parent="1" source="0koj4CaHkcI0XOmnxppj-1" target="0koj4CaHkcI0XOmnxppj-11">
          <mxGeometry relative="1" as="geometry" />
        </mxCell>
        <mxCell id="0koj4CaHkcI0XOmnxppj-22" style="edgeStyle=none;rounded=0;orthogonalLoop=1;jettySize=auto;html=1;exitX=0.5;exitY=0.5;exitDx=0;exitDy=0;exitPerimeter=0;entryX=0;entryY=0.5;entryDx=0;entryDy=0;dashed=1;startArrow=none;startFill=0;endSize=12;strokeWidth=2;" edge="1" parent="1" source="0koj4CaHkcI0XOmnxppj-1" target="0koj4CaHkcI0XOmnxppj-12">
          <mxGeometry relative="1" as="geometry" />
        </mxCell>
        <mxCell id="0koj4CaHkcI0XOmnxppj-23" style="edgeStyle=none;rounded=0;orthogonalLoop=1;jettySize=auto;html=1;exitX=1;exitY=1;exitDx=0;exitDy=0;exitPerimeter=0;entryX=0;entryY=0.5;entryDx=0;entryDy=0;dashed=1;startArrow=none;startFill=0;endSize=12;strokeWidth=2;" edge="1" parent="1" source="0koj4CaHkcI0XOmnxppj-1" target="0koj4CaHkcI0XOmnxppj-13">
          <mxGeometry relative="1" as="geometry" />
        </mxCell>
        <mxCell id="0koj4CaHkcI0XOmnxppj-32" style="edgeStyle=none;rounded=0;orthogonalLoop=1;jettySize=auto;html=1;exitX=0;exitY=1;exitDx=0;exitDy=0;exitPerimeter=0;entryX=0;entryY=0.5;entryDx=0;entryDy=0;startArrow=none;startFill=0;endArrow=none;endFill=0;endSize=12;strokeWidth=2;" edge="1" parent="1" source="0koj4CaHkcI0XOmnxppj-1" target="0koj4CaHkcI0XOmnxppj-15">
          <mxGeometry relative="1" as="geometry" />
        </mxCell>
        <mxCell id="0koj4CaHkcI0XOmnxppj-33" style="edgeStyle=none;rounded=0;orthogonalLoop=1;jettySize=auto;html=1;exitX=1;exitY=1;exitDx=0;exitDy=0;exitPerimeter=0;entryX=0;entryY=0.5;entryDx=0;entryDy=0;startArrow=none;startFill=0;endArrow=none;endFill=0;endSize=12;strokeWidth=2;" edge="1" parent="1" source="0koj4CaHkcI0XOmnxppj-1" target="0koj4CaHkcI0XOmnxppj-14">
          <mxGeometry relative="1" as="geometry" />
        </mxCell>
        <mxCell id="0koj4CaHkcI0XOmnxppj-1" value="Usuário" style="shape=umlActor;verticalLabelPosition=bottom;verticalAlign=top;html=1;outlineConnect=0;" vertex="1" parent="1">
          <mxGeometry x="170" y="555" width="30" height="60" as="geometry" />
        </mxCell>
        <mxCell id="0koj4CaHkcI0XOmnxppj-26" style="edgeStyle=none;rounded=0;orthogonalLoop=1;jettySize=auto;html=1;exitX=0.25;exitY=0.1;exitDx=0;exitDy=0;exitPerimeter=0;entryX=1;entryY=0.5;entryDx=0;entryDy=0;startArrow=none;startFill=0;endArrow=none;endFill=0;endSize=12;strokeWidth=2;" edge="1" parent="1" source="0koj4CaHkcI0XOmnxppj-2" target="0koj4CaHkcI0XOmnxppj-10">
          <mxGeometry relative="1" as="geometry" />
        </mxCell>
        <mxCell id="0koj4CaHkcI0XOmnxppj-27" style="edgeStyle=none;rounded=0;orthogonalLoop=1;jettySize=auto;html=1;exitX=0;exitY=0.3333333333333333;exitDx=0;exitDy=0;exitPerimeter=0;entryX=1;entryY=0.5;entryDx=0;entryDy=0;startArrow=none;startFill=0;endArrow=none;endFill=0;endSize=12;strokeWidth=2;" edge="1" parent="1" source="0koj4CaHkcI0XOmnxppj-2" target="0koj4CaHkcI0XOmnxppj-11">
          <mxGeometry relative="1" as="geometry" />
        </mxCell>
        <mxCell id="0koj4CaHkcI0XOmnxppj-28" style="edgeStyle=none;rounded=0;orthogonalLoop=1;jettySize=auto;html=1;exitX=0.5;exitY=0.5;exitDx=0;exitDy=0;exitPerimeter=0;entryX=1;entryY=0.5;entryDx=0;entryDy=0;startArrow=none;startFill=0;endArrow=none;endFill=0;endSize=12;strokeWidth=2;" edge="1" parent="1" source="0koj4CaHkcI0XOmnxppj-2" target="0koj4CaHkcI0XOmnxppj-12">
          <mxGeometry relative="1" as="geometry" />
        </mxCell>
        <mxCell id="0koj4CaHkcI0XOmnxppj-29" style="edgeStyle=none;rounded=0;orthogonalLoop=1;jettySize=auto;html=1;exitX=0;exitY=1;exitDx=0;exitDy=0;exitPerimeter=0;entryX=1;entryY=0.5;entryDx=0;entryDy=0;startArrow=none;startFill=0;endArrow=none;endFill=0;endSize=12;strokeWidth=2;" edge="1" parent="1" source="0koj4CaHkcI0XOmnxppj-2" target="0koj4CaHkcI0XOmnxppj-13">
          <mxGeometry relative="1" as="geometry" />
        </mxCell>
        <mxCell id="0koj4CaHkcI0XOmnxppj-2" value="Aplicativo&amp;nbsp;" style="shape=umlActor;verticalLabelPosition=bottom;verticalAlign=top;html=1;outlineConnect=0;" vertex="1" parent="1">
          <mxGeometry x="640" y="400" width="30" height="60" as="geometry" />
        </mxCell>
        <mxCell id="0koj4CaHkcI0XOmnxppj-18" style="rounded=0;orthogonalLoop=1;jettySize=auto;html=1;exitX=0;exitY=0.3333333333333333;exitDx=0;exitDy=0;exitPerimeter=0;entryX=1;entryY=0;entryDx=0;entryDy=0;dashed=1;startArrow=none;startFill=0;endSize=12;strokeWidth=2;" edge="1" parent="1" source="0koj4CaHkcI0XOmnxppj-3" target="0koj4CaHkcI0XOmnxppj-14">
          <mxGeometry relative="1" as="geometry" />
        </mxCell>
        <mxCell id="0koj4CaHkcI0XOmnxppj-3" value="Carro" style="shape=umlActor;verticalLabelPosition=bottom;verticalAlign=top;html=1;outlineConnect=0;" vertex="1" parent="1">
          <mxGeometry x="640" y="640" width="30" height="60" as="geometry" />
        </mxCell>
        <mxCell id="0koj4CaHkcI0XOmnxppj-19" style="rounded=0;orthogonalLoop=1;jettySize=auto;html=1;exitX=0;exitY=1;exitDx=0;exitDy=0;exitPerimeter=0;entryX=1;entryY=0;entryDx=0;entryDy=0;dashed=1;startArrow=none;startFill=0;endSize=12;strokeWidth=2;" edge="1" parent="1" source="0koj4CaHkcI0XOmnxppj-3">
          <mxGeometry relative="1" as="geometry">
            <mxPoint x="650" y="670" as="sourcePoint" />
            <mxPoint x="466.42640687119274" y="800.2512626584708" as="targetPoint" />
          </mxGeometry>
        </mxCell>
      </root>
    </mxGraphModel>
  </diagram>
</mxfile>
